# Blender v3.0.0 OBJ File: 'asteroid.blend'
# www.blender.org
mtllib asteroid.mtl
o Icosphere
v -0.006469 -2.594585 0.022953
v 1.267436 -0.808547 1.909260
v -0.752177 -1.007073 2.380867
v -2.331614 -1.165175 0.000596
v -0.747897 -1.235712 -2.182291
v 1.762204 -1.305752 -1.121368
v 0.562230 1.771644 2.937620
v -1.928906 1.306438 1.553004
v -1.854878 1.063181 -1.311581
v 0.498191 0.808412 -1.822835
v 2.019734 1.296352 0.876118
v -0.435650 -2.156408 1.366134
v 1.052390 -2.112226 0.957303
v 0.591876 -1.074454 2.367149
v 1.947610 -1.329734 0.419426
v -1.370612 -2.216418 0.000998
v -1.800185 -1.338664 1.335898
v -0.431639 -2.237988 -1.292772
v -1.797381 -1.379306 -1.298891
v 0.624486 -1.500839 -2.018629
v 2.041105 0.304619 1.613352
v 2.194506 -0.150654 -0.168844
v -0.087111 0.392028 3.033213
v 1.378845 0.529822 2.770555
v -2.486593 0.031185 0.840836
v -1.566103 0.164163 2.280858
v -1.565841 -0.085247 -2.065515
v -2.486211 -0.015874 -0.795304
v 1.345669 -0.296354 -1.777934
v -0.094456 -0.214634 -2.472452
v 1.443046 2.029488 2.348659
v -0.782029 1.748017 2.553041
v -2.164060 1.364167 0.075394
v -0.784066 1.142892 -1.922516
v 1.313149 0.920881 -0.259914
v 0.157686 2.587082 1.765417
v 1.111619 2.142797 0.774156
v -1.115845 2.272188 1.125026
v -0.703328 2.012215 -0.676259
v 0.153171 1.826616 -0.783620
v 0.666247 2.454022 0.600754
v 0.036288 2.609343 1.116775
v -0.650475 2.477843 0.845179
v -0.450021 2.306722 -0.148016
v -0.035396 2.276724 -0.298364
v 0.864856 2.438242 0.633854
v 0.177150 2.166355 -0.571647
v -0.582139 2.252558 -0.284169
v -1.011712 2.480518 1.044621
v 0.067955 2.633464 1.316953
v 0.672302 2.261239 0.668375
v 0.054224 2.254428 0.444955
v 0.083882 2.428916 1.253757
v -0.669353 2.227719 0.876684
v -0.413052 2.074321 -0.249536
v 0.132964 2.021992 -0.317241
v 1.007071 -1.786197 -0.557978
v 1.525474 -1.451706 -0.955603
v 0.142924 -2.031396 -1.082645
v 0.414580 -2.256458 -0.239985
v 0.797561 -1.580565 -1.535111
v 1.101179 -1.945211 0.365549
v 1.642853 -1.465475 0.037853
v -0.264693 -2.338235 -1.272407
v 0.128921 -2.668366 -0.054334
v 0.713048 -1.655796 -1.944393
v 1.766326 -1.475188 -1.113725
v 1.109194 -2.221807 0.810671
v 1.937972 -1.497391 0.312714
vt 0.785509 0.553050
vt 0.882189 0.608021
vt 0.781397 0.663125
vt 0.577651 0.635536
vt 0.653305 0.695027
vt 0.566137 0.738434
vt 0.690507 0.586890
vt 0.736229 0.480619
vt 0.656343 0.706496
vt 0.575645 0.746682
vt 0.476263 0.653359
vt 0.656343 0.507722
vt 0.622736 0.590373
vt 0.556203 0.480881
vt 0.175996 0.423243
vt 0.236077 0.508717
vt 0.116704 0.505959
vt 0.746082 0.107348
vt 0.838687 0.152153
vt 0.743033 0.212937
vt 0.196846 0.347384
vt 0.100482 0.371517
vt 0.125787 0.285283
vt 0.500954 0.571460
vt 0.268009 0.615702
vt 0.210437 0.725767
vt 0.169081 0.622445
vt 0.075905 0.415889
vt 0.668585 0.135516
vt 0.256968 0.248662
vt 0.539845 0.017074
vt 0.618522 0.035011
vt 0.551143 0.085993
vt 0.393309 0.169056
vt 0.455418 0.069003
vt 0.473538 0.160855
vt 0.462814 0.369409
vt 0.412814 0.273257
vt 0.541095 0.282495
vt 0.634437 0.366448
vt 0.552652 0.389431
vt 0.600380 0.278176
vt 0.296185 0.123137
vt 0.203368 0.167804
vt 0.244039 0.058442
vt 0.854102 0.331942
vt 0.854102 0.428812
vt 0.822765 0.392949
vt 0.817913 0.336499
vt 0.114382 0.105528
vt 0.075901 0.201357
vt 0.122438 0.051125
vt 0.208505 0.017074
vt 0.497836 0.158649
vt 0.548810 0.236187
vt 0.705948 0.331942
vt 0.705948 0.434641
vt 0.668585 0.402433
vt 0.677826 0.334763
vt 0.599975 0.242799
vt 0.634437 0.146354
vt 0.357335 0.037602
vt 0.027063 0.283549
vt 0.017074 0.170793
vt 0.675731 0.249829
vt 0.484383 0.442208
vt 0.391483 0.370800
vt 0.017074 0.524433
vt 0.066199 0.610846
vt 0.092160 0.723002
vt 0.133694 0.794145
vt 0.391483 0.537965
vt 0.444196 0.476357
vt 0.357335 0.179733
vt 0.710253 0.029789
vt 0.843165 0.266511
vt 0.752624 0.297793
vt 0.919988 0.196658
vt 0.301318 0.319834
vt 0.747628 0.476357
vt 0.793252 0.543411
vt 0.882756 0.594302
vt 0.816177 0.039227
vt 0.919988 0.090989
vt 0.268009 0.420852
vt 0.690492 0.707169
vt 0.786785 0.766164
vt 0.199847 0.359399
vt 0.110634 0.381741
vt 0.296564 0.333894
vt 0.716220 0.017074
vt 0.814283 0.025812
vt 0.882756 0.737893
vt 0.302158 0.683003
vt 0.309584 0.646676
vt 0.346524 0.635585
vt 0.340541 0.687152
vt 0.745112 0.412338
vt 0.740097 0.336874
vt 0.783765 0.331942
vt 0.783765 0.417104
vt 0.308523 0.737467
vt 0.346524 0.755794
vt 0.302158 0.852320
vt 0.302669 0.798082
vt 0.340693 0.789943
vt 0.341724 0.852320
vt 0.699676 0.807016
vt 0.727591 0.800313
vt 0.727591 0.841370
vt 0.690492 0.851977
vt 0.582717 0.227595
vt 0.608971 0.158408
vt 0.620185 0.153485
vt 0.554703 0.224731
vt 0.523961 0.164785
vt 0.561793 0.134524
vt 0.559858 0.121473
vt 0.534857 0.844904
vt 0.590521 0.780831
vt 0.580880 0.839663
vt 0.626451 0.795885
vt 0.626451 0.882730
vt 0.564474 0.899158
vt 0.500708 0.893535
vt 0.486674 0.947930
vt 0.456949 0.876216
vt 0.433476 0.936217
vt 0.412987 0.869728
vt 0.445113 0.808107
vt 0.485996 0.822984
vt 0.342853 0.443305
vt 0.326991 0.507845
vt 0.302158 0.509205
vt 0.325450 0.415890
vt 0.421514 0.965000
vt 0.391483 0.869380
vt 0.342853 0.572421
vt 0.324966 0.601436
vt 0.437390 0.780831
vt 0.500708 0.982926
vt 0.499920 0.803566
vn -0.2380 -0.9527 0.1889
vn 0.4074 -0.7065 0.5786
vn -0.1512 -0.8446 0.5135
vn 0.6878 -0.4611 0.5607
vn 0.9182 -0.3014 0.2571
vn -0.5228 -0.8524 0.0112
vn -0.3433 -0.7899 -0.5081
vn 0.4613 -0.8430 0.2765
vn 0.8400 -0.5416 0.0320
vn 0.9319 -0.1023 0.3480
vn -0.3042 -0.4897 0.8170
vn 0.2859 -0.5566 0.7800
vn -0.1326 -0.1184 0.9840
vn -0.8928 -0.4503 0.0024
vn -0.6898 -0.5374 0.4851
vn -0.9622 -0.0100 0.2721
vn -0.2689 -0.4422 -0.8556
vn -0.6925 -0.5278 -0.4917
vn -0.5691 0.0358 -0.8214
vn 0.8696 -0.0671 -0.4891
vn 0.2545 -0.3363 -0.9067
vn 0.6889 0.1802 -0.7021
vn 0.5891 -0.1293 0.7976
vn -0.6639 -0.0718 0.7443
vn -0.9500 0.0249 -0.3112
vn 0.0978 0.0835 -0.9917
vn 0.9607 0.1355 -0.2423
vn 0.0867 0.4614 0.8829
vn 0.6363 0.6276 0.4486
vn 0.0236 0.9287 0.3700
vn -0.8075 0.4198 0.4143
vn -0.4633 0.5097 0.7249
vn -0.5950 0.7918 0.1379
vn -0.6570 0.5428 -0.5231
vn -0.8051 0.5855 -0.0945
vn -0.2771 0.8187 -0.5029
vn 0.4698 0.5557 -0.6859
vn -0.1321 0.6066 -0.7840
vn 0.4006 0.6919 -0.6006
vn 0.8805 0.4442 -0.1653
vn 0.6732 0.5527 -0.4912
vn 0.6531 0.7147 -0.2504
vn 0.0648 0.9854 0.1572
vn -0.4634 0.8861 -0.0016
vn 0.3547 0.7253 -0.5899
vn 0.5515 0.8056 -0.2164
vn -0.3761 0.8230 -0.4256
vn -0.0351 -0.8920 -0.4507
vn 0.1165 -0.9930 -0.0206
vn 0.6937 -0.6339 -0.3421
vn 0.3876 -0.6245 -0.6780
vn 0.3756 0.8262 -0.4199
vn -0.0584 0.6703 -0.7397
vn -0.1930 0.3028 -0.9333
vn 0.7190 0.5400 -0.4375
vn -0.4548 0.8545 -0.2506
vn -0.1462 0.9118 0.3836
vn -0.4662 0.6448 0.6056
vn -0.9043 0.3414 -0.2561
vn 0.4661 0.8781 0.1074
vn 0.5112 0.6189 0.5963
vn -0.0145 0.9734 -0.2286
vn 0.6022 -0.7127 -0.3597
vn 0.5776 -0.7875 -0.2149
vn 0.4802 -0.8486 -0.2220
vn 0.3217 -0.9468 -0.0012
vn 0.1449 -0.9893 -0.0153
vn 0.2607 -0.9439 -0.2025
vn 0.5351 -0.7549 -0.3790
usemtl Material
s 1
f 1/1/1 13/2/2 12/3/3
f 2/4/4 13/5/2 15/6/5
f 1/1/1 12/3/3 16/7/6
f 1/1/1 16/7/6 18/8/7
f 15/6/5 13/5/2 68/9/8 69/10/9
f 2/4/4 15/6/5 21/11/10
f 3/12/11 14/13/12 23/14/13
f 4/15/14 17/16/15 25/17/16
f 5/18/17 19/19/18 27/20/19
f 6/21/20 20/22/21 29/23/22
f 2/4/4 21/11/10 24/24/23
f 3/25/11 23/26/13 26/27/24
f 4/15/14 25/17/16 28/28/25
f 5/18/17 27/20/19 30/29/26
f 6/21/20 29/23/22 22/30/27
f 7/31/28 31/32/29 36/33/30
f 8/34/31 32/35/32 38/36/33
f 9/37/34 33/38/35 39/39/36
f 10/40/37 34/41/38 40/42/39
f 11/43/40 35/44/41 37/45/42
f 38/46/33 36/47/30 50/48/43 49/49/44
f 37/45/42 35/44/41 40/50/39
f 35/44/41 10/51/37 40/50/39
f 37/45/42 40/50/39 47/52/45 46/53/46
f 40/42/39 34/41/38 39/39/36
f 34/41/38 9/37/34 39/39/36
f 39/39/36 38/36/33 49/54/44 48/55/47
f 39/39/36 33/38/35 38/36/33
f 33/38/35 8/34/31 38/36/33
f 36/56/30 37/57/42 46/58/46 50/59/43
f 38/36/33 32/35/32 36/33/30
f 32/35/32 7/31/28 36/33/30
f 40/42/39 39/39/36 48/55/47 47/60/45
f 36/33/30 31/32/29 37/61/42
f 31/62/29 11/43/40 37/45/42
f 22/30/27 35/44/41 11/43/40
f 22/30/27 29/23/22 35/44/41
f 29/23/22 10/51/37 35/44/41
f 30/63/26 34/64/38 10/51/37
f 30/29/26 27/20/19 34/65/38
f 27/66/19 9/37/34 34/41/38
f 28/67/25 33/38/35 9/37/34
f 28/28/25 25/17/16 33/68/35
f 25/17/16 8/69/31 33/68/35
f 26/27/24 32/70/32 8/69/31
f 26/27/24 23/26/13 32/70/32
f 23/26/13 7/71/28 32/70/32
f 24/24/23 31/72/29 7/73/28
f 24/24/23 21/11/10 31/72/29
f 21/74/10 11/43/40 31/62/29
f 29/23/22 30/63/26 10/51/37
f 29/23/22 20/22/21 30/63/26
f 20/75/21 5/18/17 30/29/26
f 27/20/19 28/76/25 9/77/34
f 27/20/19 19/19/18 28/76/25
f 19/19/18 4/78/14 28/76/25
f 25/17/16 26/27/24 8/69/31
f 25/17/16 17/16/15 26/27/24
f 17/16/15 3/25/11 26/27/24
f 23/14/13 24/24/23 7/73/28
f 23/14/13 14/13/12 24/24/23
f 14/13/12 2/4/4 24/24/23
f 21/74/10 22/30/27 11/43/40
f 21/74/10 15/79/5 22/30/27
f 15/79/5 6/21/20 22/30/27
f 1/1/1 18/8/7 64/80/48 65/81/49
f 13/2/2 1/1/1 65/81/49 68/82/8
f 18/83/7 5/18/17 20/75/21
f 18/83/7 19/19/18 5/18/17
f 18/83/7 16/84/6 19/19/18
f 16/84/6 4/78/14 19/19/18
f 16/85/6 17/16/15 4/15/14
f 16/7/6 12/3/3 17/86/15
f 12/3/3 3/87/11 17/86/15
f 20/22/21 6/21/20 67/88/50 66/89/51
f 6/21/20 15/79/5 69/90/9 67/88/50
f 18/83/7 20/75/21 66/91/51 64/92/48
f 12/3/3 14/93/12 3/87/11
f 12/3/3 13/2/2 14/93/12
f 13/5/2 2/4/4 14/13/12
f 43/94/52 42/95/53 53/96/54 54/97/55
f 41/98/56 45/99/57 56/100/58 51/101/59
f 44/102/60 43/94/52 54/97/55 55/103/61
f 42/104/53 41/105/56 51/106/59 53/107/54
f 45/108/57 44/109/60 55/110/61 56/111/58
f 45/112/57 41/113/56 46/114/46 47/60/45
f 44/115/60 45/112/57 47/60/45 48/55/47
f 43/116/52 44/115/60 48/55/47 49/54/44
f 42/117/53 43/116/52 49/54/44 50/118/43
f 41/113/56 42/117/53 50/118/43 46/114/46
f 51/119/59 56/120/58 52/121/62
f 56/120/58 55/122/61 52/121/62
f 55/122/61 54/123/55 52/121/62
f 54/123/55 53/124/54 52/121/62
f 53/124/54 51/119/59 52/121/62
f 60/125/63 59/126/64 57/127/65
f 57/127/65 61/128/66 58/129/67
f 57/127/65 59/126/64 61/128/66
f 63/130/68 57/127/65 58/129/67
f 63/130/68 62/131/69 57/127/65
f 62/131/69 60/125/63 57/127/65
f 59/132/64 60/133/63 65/134/49 64/135/48
f 58/129/67 61/128/66 66/136/51 67/137/50
f 60/133/63 62/138/69 68/139/8 65/134/49
f 63/130/68 58/129/67 67/137/50 69/140/9
f 61/128/66 59/126/64 64/141/48 66/136/51
f 62/131/69 63/130/68 69/140/9 68/142/8
