# Blender v3.0.0 OBJ File: 'crosshair1.blend'
# www.blender.org
mtllib crosshair1.mtl
o Cube
v -0.000000 0.016521 -0.597688
v -0.323135 0.016521 -0.502807
v -0.543676 0.016521 -0.248289
v -0.591604 0.016521 0.085060
v -0.451703 0.016521 0.391402
v -0.168388 0.016521 0.573477
v 0.168388 0.016521 0.573477
v 0.451702 0.016521 0.391402
v 0.591604 0.016521 0.085060
v 0.543676 0.016521 -0.248289
v 0.323135 0.016521 -0.502807
v 0.000000 0.016521 -0.868181
v -0.469374 0.016521 -0.730360
v -0.789725 0.016521 -0.360655
v -0.859344 0.016521 0.123555
v -0.656127 0.016521 0.568537
v -0.244595 0.016521 0.833013
v 0.244595 0.016521 0.833013
v 0.656127 0.016521 0.568538
v 0.859344 0.016521 0.123555
v 0.789725 0.016521 -0.360655
v 0.469374 0.016521 -0.730360
v -0.009530 0.050689 0.009530
v -0.181902 1.412284 0.181902
v -0.009530 0.050689 -0.009530
v -0.181902 1.412284 -0.181902
v 0.009530 0.050689 0.009530
v 0.181902 1.412284 0.181902
v 0.009530 0.050689 -0.009530
v 0.181902 1.412284 -0.181902
v -0.009530 0.050689 0.000000
v -0.253157 1.412284 0.000000
v 0.009530 0.050689 0.000000
v 0.253157 1.412284 0.000000
v -0.000000 0.050689 -0.009530
v -0.000000 1.412284 -0.253157
v -0.000000 0.050689 0.009530
v -0.000000 1.412284 0.253157
v -0.000000 1.682510 0.000000
v -0.000000 0.050689 0.000000
v -0.323135 0.081901 -0.502807
v -0.000000 0.081901 -0.597688
v -0.543676 0.081901 -0.248289
v -0.591604 0.081901 0.085060
v -0.451703 0.081901 0.391402
v -0.168388 0.081901 0.573477
v 0.168388 0.081901 0.573477
v 0.451702 0.081901 0.391402
v 0.591604 0.081901 0.085060
v 0.543676 0.081901 -0.248289
v 0.323135 0.081901 -0.502807
v -0.469374 0.081901 -0.730360
v 0.000000 0.081901 -0.868181
v -0.789725 0.081901 -0.360655
v -0.859344 0.081901 0.123555
v -0.656127 0.081901 0.568537
v -0.244595 0.081901 0.833013
v 0.244595 0.081901 0.833013
v 0.656127 0.081901 0.568538
v 0.859344 0.081901 0.123555
v 0.789725 0.081901 -0.360655
v 0.469374 0.081901 -0.730360
vt 0.000000 0.000000
vt 0.000000 0.000000
vt 0.000000 0.000000
vt 0.000000 0.000000
vt 0.000000 0.000000
vt 0.000000 0.000000
vt 0.000000 0.000000
vt 0.000000 0.000000
vt 0.000000 0.000000
vt 0.000000 0.000000
vt 0.000000 0.000000
vt 0.000000 0.000000
vt 0.000000 0.000000
vt 0.000000 0.000000
vt 0.000000 0.000000
vt 0.000000 0.000000
vt 0.000000 0.000000
vt 0.000000 0.000000
vt 0.000000 0.000000
vt 0.000000 0.000000
vt 0.000000 0.000000
vt 0.000000 0.000000
vt 0.375000 0.125000
vt 0.625000 0.125000
vt 0.625000 0.250000
vt 0.375000 0.250000
vt 0.375000 0.375000
vt 0.625000 0.375000
vt 0.625000 0.500000
vt 0.375000 0.500000
vt 0.375000 0.625000
vt 0.625000 0.625000
vt 0.625000 0.750000
vt 0.375000 0.750000
vt 0.375000 0.875000
vt 0.625000 0.875000
vt 0.625000 1.000000
vt 0.375000 1.000000
vt 0.250000 0.625000
vt 0.250000 0.750000
vt 0.750000 0.625000
vt 0.875000 0.625000
vt 0.875000 0.750000
vt 0.750000 0.750000
vt 0.750000 0.500000
vt 0.875000 0.500000
vt 0.250000 0.500000
vt 0.375000 0.000000
vt 0.625000 0.000000
vt 0.125000 0.500000
vt 0.125000 0.625000
vt 0.125000 0.750000
vt 0.000000 0.000000
vt 0.000000 0.000000
vt 0.000000 0.000000
vt 0.000000 0.000000
vt 0.000000 0.000000
vt 0.000000 0.000000
vt 0.000000 0.000000
vt 0.000000 0.000000
vt 0.000000 0.000000
vt 0.000000 0.000000
vt 0.000000 0.000000
vt 0.000000 0.000000
vt 0.000000 0.000000
vt 0.000000 0.000000
vt 0.000000 0.000000
vt 0.000000 0.000000
vt 0.000000 0.000000
vt 0.000000 0.000000
vt 0.000000 0.000000
vt 0.000000 0.000000
vt 0.000000 0.000000
vt 0.000000 0.000000
vn -0.4763 -0.7763 -0.4127
vn -0.6239 -0.7763 -0.0897
vn 0.7532 -0.6488 0.1083
vn 0.5751 -0.6488 0.4983
vn 0.4763 -0.7763 -0.4127
vn 0.1776 -0.7763 -0.6048
vn -0.2144 -0.6488 0.7301
vn -0.5751 -0.6488 0.4983
vn 0.3407 -0.7763 0.5302
vn 0.5733 -0.7763 0.2618
vn -0.6921 -0.6488 -0.3161
vn -0.4114 -0.6488 -0.6401
vn -0.5733 -0.7763 0.2618
vn 0.6921 -0.6488 -0.3161
vn -0.1776 -0.7763 -0.6048
vn 0.2144 -0.6488 0.7301
vn 0.6239 -0.7763 -0.0897
vn -0.7532 -0.6488 0.1083
vn -0.3407 -0.7763 0.5302
vn 0.4114 -0.6488 -0.6401
vn 0.0000 -0.7763 0.6303
vn 0.0000 -0.6488 -0.7609
vn -0.6223 -0.7827 0.0000
vn -0.9522 0.3055 0.0000
vn -0.6854 0.2459 -0.6854
vn -0.5798 -0.5723 -0.5798
vn 0.0000 -0.7827 -0.6223
vn 0.0000 0.3055 -0.9522
vn 0.6854 0.2459 -0.6854
vn 0.5798 -0.5723 -0.5798
vn 0.6223 -0.7827 0.0000
vn 0.9522 0.3055 0.0000
vn 0.6854 0.2459 0.6854
vn 0.5798 -0.5723 0.5798
vn 0.0000 -0.7827 0.6223
vn 0.0000 0.3055 0.9522
vn -0.6854 0.2459 0.6854
vn -0.5798 -0.5723 0.5798
vn 0.0000 -1.0000 0.0000
vn 0.0000 1.0000 0.0000
vn -0.4763 0.7763 -0.4127
vn 0.5751 0.6488 0.4983
vn 0.7532 0.6488 0.1083
vn -0.6239 0.7763 -0.0897
vn 0.4763 0.7763 -0.4127
vn -0.5751 0.6488 0.4983
vn -0.2144 0.6488 0.7301
vn 0.1776 0.7763 -0.6048
vn 0.3407 0.7763 0.5302
vn -0.4114 0.6488 -0.6401
vn -0.6921 0.6488 -0.3161
vn 0.5733 0.7763 0.2618
vn 0.6921 0.6488 -0.3161
vn -0.5733 0.7763 0.2618
vn 0.2144 0.6488 0.7301
vn -0.1776 0.7763 -0.6048
vn -0.7532 0.6488 0.1083
vn 0.6239 0.7763 -0.0897
vn 0.4114 0.6488 -0.6401
vn -0.3407 0.7763 0.5302
vn 0.0000 0.6488 -0.7609
vn 0.0000 0.7763 0.6303
usemtl Material
s 1
f 8/1/1 9/2/2 20/3/3 19/4/4
f 5/5/5 6/6/6 17/7/7 16/8/8
f 2/9/9 3/10/10 14/11/11 13/12/12
f 9/2/2 10/13/13 21/14/14 20/3/3
f 6/6/6 7/15/15 18/16/16 17/7/7
f 3/10/10 4/17/17 15/18/18 14/11/11
f 10/13/13 11/19/19 22/20/20 21/14/14
f 7/15/15 8/1/1 19/4/4 18/16/16
f 4/17/17 5/5/5 16/8/8 15/18/18
f 11/19/19 1/21/21 12/22/22 22/20/20
f 1/21/21 2/9/9 13/12/12 12/22/22
f 31/23/23 32/24/24 26/25/25 25/26/26
f 35/27/27 36/28/28 30/29/29 29/30/30
f 33/31/31 34/32/32 28/33/33 27/34/34
f 37/35/35 38/36/36 24/37/37 23/38/38
f 40/39/39 33/31/31 27/34/34 37/40/35
f 39/41/40 32/42/24 24/43/37 38/44/36
f 36/45/28 26/46/25 32/42/24 39/41/40
f 35/47/27 29/30/30 33/31/31 40/39/39
f 29/30/30 30/29/29 34/32/32 33/31/31
f 23/48/38 24/49/37 32/24/24 31/23/23
f 25/50/26 35/47/27 40/39/39 31/51/23
f 30/29/29 36/45/28 39/41/40 34/32/32
f 34/32/32 39/41/40 38/44/36 28/33/33
f 31/51/23 40/39/39 37/40/35 23/52/38
f 27/34/34 28/33/33 38/36/36 37/35/35
f 25/26/26 26/25/25 36/28/28 35/27/27
f 48/53/41 59/54/42 60/55/43 49/56/44
f 45/57/45 56/58/46 57/59/47 46/60/48
f 41/61/49 52/62/50 54/63/51 43/64/52
f 49/56/44 60/55/43 61/65/53 50/66/54
f 46/60/48 57/59/47 58/67/55 47/68/56
f 43/64/52 54/63/51 55/69/57 44/70/58
f 50/66/54 61/65/53 62/71/59 51/72/60
f 47/68/56 58/67/55 59/54/42 48/53/41
f 44/70/58 55/69/57 56/58/46 45/57/45
f 51/72/60 62/71/59 53/73/61 42/74/62
f 42/74/62 53/73/61 52/62/50 41/61/49
f 1/21/21 42/74/62 41/61/49 2/9/9
f 17/7/7 57/59/47 56/58/46 16/8/8
f 9/2/2 49/56/44 50/66/54 10/13/13
f 2/9/9 41/61/49 43/64/52 3/10/10
f 18/16/16 58/67/55 57/59/47 17/7/7
f 10/13/13 50/66/54 51/72/60 11/19/19
f 3/10/10 43/64/52 44/70/58 4/17/17
f 19/4/4 59/54/42 58/67/55 18/16/16
f 11/19/19 51/72/60 42/74/62 1/21/21
f 4/17/17 44/70/58 45/57/45 5/5/5
f 20/3/3 60/55/43 59/54/42 19/4/4
f 13/12/12 52/62/50 53/73/61 12/22/22
f 5/5/5 45/57/45 46/60/48 6/6/6
f 21/14/14 61/65/53 60/55/43 20/3/3
f 14/11/11 54/63/51 52/62/50 13/12/12
f 6/6/6 46/60/48 47/68/56 7/15/15
f 22/20/20 62/71/59 61/65/53 21/14/14
f 15/18/18 55/69/57 54/63/51 14/11/11
f 7/15/15 47/68/56 48/53/41 8/1/1
f 12/22/22 53/73/61 62/71/59 22/20/20
f 16/8/8 56/58/46 55/69/57 15/18/18
f 8/1/1 48/53/41 49/56/44 9/2/2
