# Blender v3.0.0 OBJ File: 'missile.blend'
# www.blender.org
mtllib missile.mtl
o Cube
v 0.463617 0.463617 -1.729644
v 0.463617 -0.463617 -1.729644
v 0.366884 0.366884 1.833942
v 0.366884 -0.366884 1.833942
v -0.463617 0.463617 -1.729644
v -0.463617 -0.463617 -1.729644
v -0.366884 0.366884 1.833942
v -0.366884 -0.366884 1.833942
v 0.000000 -0.677354 -1.729644
v 0.000000 0.366884 1.833942
v 0.000000 -0.366884 1.833942
v 0.000000 0.677354 -1.729644
v 0.677354 0.000000 -1.729644
v -0.366884 0.000000 1.867714
v 0.366884 0.000000 1.867714
v -0.677354 0.000000 -1.729644
v 0.000000 0.000000 -1.729644
v -0.440281 -0.440281 0.779634
v -0.064907 0.000000 3.443859
v -0.064907 0.064907 3.437884
v 0.064907 0.000000 3.443859
v 0.064907 -0.064907 3.437884
v 0.000000 0.064907 3.437884
v 0.000000 -0.064907 3.437884
v 0.064907 0.064907 3.437884
v -0.064907 -0.064907 3.437884
v 0.000000 0.000000 3.443859
v 0.440281 0.440281 0.779634
v -0.440281 0.440281 0.779634
v 0.440281 -0.440281 0.779634
v 0.000000 -0.602456 0.779634
v 0.000000 0.602456 0.779634
v 0.602456 0.000000 0.787782
v -0.602456 0.000000 0.787782
v -1.962295 -0.061890 -1.221359
v -1.962295 0.061890 -1.221359
v -1.962295 -0.061890 -1.541314
v -1.962295 0.061890 -1.541314
v 1.962295 -0.061890 -1.221359
v 1.962295 0.061890 -1.221359
v 1.962295 -0.061890 -1.541314
v 1.962295 0.061890 -1.541314
v -0.000000 -0.061890 -1.541314
v -0.000000 0.061890 -1.541314
v -0.000000 -0.061890 1.370431
v -0.000000 0.061890 1.370431
v -0.061890 1.962296 -1.221359
v 0.061890 1.962295 -1.221359
v -0.061890 1.962296 -1.541314
v 0.061890 1.962295 -1.541314
v -0.061890 -1.962295 -1.221359
v 0.061890 -1.962296 -1.221359
v -0.061890 -1.962295 -1.541314
v 0.061890 -1.962296 -1.541314
v -0.061890 0.000000 -1.541314
v 0.061890 0.000000 -1.541314
v -0.061890 0.000000 1.370431
v 0.061890 0.000000 1.370431
vt 0.071951 0.088697
vt 0.077449 0.088697
vt 0.077449 0.097039
vt 0.071951 0.097039
vt 0.049961 0.097039
vt 0.055458 0.097039
vt 0.055458 0.097039
vt 0.049961 0.097039
vt 0.060956 0.072396
vt 0.066454 0.072396
vt 0.066454 0.075049
vt 0.060956 0.075049
vt 0.049961 0.088697
vt 0.055458 0.088697
vt 0.060956 0.088697
vt 0.066454 0.088697
vt 0.066454 0.097039
vt 0.060956 0.097039
vt 0.060956 0.080546
vt 0.066454 0.080546
vt 0.066454 0.086044
vt 0.060956 0.086044
vt 0.044463 0.088697
vt 0.044463 0.097039
vt 0.060956 0.064053
vt 0.055458 0.064053
vt 0.055458 0.064053
vt 0.060956 0.064053
vt 0.066454 0.064053
vt 0.066454 0.064053
vt 0.055458 0.075049
vt 0.055458 0.080546
vt 0.055458 0.086044
vt 0.055458 0.072396
vt 0.044463 0.097039
vt 0.060956 0.102537
vt 0.066454 0.102537
vt 0.066454 0.108035
vt 0.060956 0.108035
vt 0.060956 0.097039
vt 0.066454 0.097039
vt 0.055458 0.102537
vt 0.055458 0.108035
vt 0.077449 0.097039
vt 0.071951 0.097039
vt 0.071951 0.086044
vt 0.044463 0.086044
vt 0.049961 0.086044
vt 0.077449 0.086044
vt 0.779596 0.777358
vt 0.790591 0.777358
vt 0.790591 0.788353
vt 0.779596 0.788353
vt 0.779596 0.793851
vt 0.790591 0.793851
vt 0.790591 0.799348
vt 0.779596 0.799348
vt 0.790591 0.810344
vt 0.779596 0.810344
vt 0.779596 0.815841
vt 0.790591 0.815841
vt 0.790591 0.821339
vt 0.779596 0.821339
vt 0.774098 0.799348
vt 0.774098 0.810344
vt 0.796089 0.799348
vt 0.801587 0.799348
vt 0.801587 0.810344
vt 0.796089 0.810344
vt 0.768601 0.799348
vt 0.768601 0.810344
vt 0.779596 0.777358
vt 0.790591 0.777358
vt 0.790591 0.788353
vt 0.779596 0.788353
vt 0.779596 0.793851
vt 0.790591 0.793851
vt 0.790591 0.799348
vt 0.779596 0.799348
vt 0.790591 0.810344
vt 0.779596 0.810344
vt 0.779596 0.815841
vt 0.790591 0.815841
vt 0.790591 0.821339
vt 0.779596 0.821339
vt 0.774098 0.799348
vt 0.774098 0.810344
vt 0.796089 0.799348
vt 0.801587 0.799348
vt 0.801587 0.810344
vt 0.796089 0.810344
vt 0.768601 0.799348
vt 0.768601 0.810344
vn -0.1948 0.9695 0.1488
vn 0.0000 -0.9827 0.1850
vn -0.9231 0.3841 0.0198
vn 0.1948 -0.9695 0.1488
vn 0.9682 0.2022 0.1471
vn 0.0000 0.0000 -1.0000
vn -0.1948 -0.9695 0.1488
vn -0.9820 -0.0173 0.1881
vn 0.1948 0.9695 0.1488
vn -0.9820 0.0173 0.1881
vn 0.9682 -0.2022 0.1471
vn -0.9231 -0.3841 0.0198
vn 0.0000 0.0917 0.9958
vn 0.0000 -0.0917 0.9958
vn 0.0000 0.9827 0.1850
vn 0.9820 -0.0173 0.1881
vn 0.9820 0.0173 0.1881
vn -0.9682 -0.2022 0.1471
vn 0.9231 -0.3841 0.0198
vn 0.3839 0.9232 0.0199
vn -0.3839 -0.9232 0.0199
vn 0.9231 0.3841 0.0198
vn 0.3839 -0.9232 0.0199
vn -0.9682 0.2022 0.1471
vn -0.3839 0.9232 0.0199
vn -1.0000 0.0000 0.0000
vn 1.0000 0.0000 0.0000
vn -0.7973 0.0000 0.6036
vn 0.0000 -1.0000 0.0000
vn 0.0000 1.0000 0.0000
vn 0.7973 0.0000 0.6036
vn 0.0000 0.7973 0.6036
vn -0.0000 -0.7973 0.6036
usemtl Material
s off
f 32/1/1 29/2/1 7/3/1 10/4/1
f 11/5/2 4/6/2 22/7/2 24/8/2
f 34/9/3 29/10/3 5/11/3 16/12/3
f 31/13/4 30/14/4 4/6/4 11/5/4
f 33/15/5 28/16/5 3/17/5 15/18/5
f 17/19/6 12/20/6 1/21/6 13/22/6
f 16/12/6 5/11/6 12/20/6 17/19/6
f 18/23/7 31/13/7 11/5/7 8/24/7
f 14/25/8 8/26/8 26/27/8 19/28/8
f 28/16/9 32/1/9 10/4/9 3/17/9
f 7/29/10 14/25/10 19/28/10 20/30/10
f 6/31/6 16/12/6 17/19/6 9/32/6
f 9/32/6 17/19/6 13/22/6 2/33/6
f 30/14/11 33/15/11 15/18/11 4/6/11
f 18/34/12 34/9/12 16/12/12 6/31/12
f 8/24/2 11/5/2 24/8/2 26/35/2
f 27/36/13 23/37/13 20/38/13 19/39/13
f 21/40/13 25/41/13 23/37/13 27/36/13
f 22/7/14 21/40/14 27/36/14 24/42/14
f 24/42/14 27/36/14 19/39/14 26/43/14
f 10/4/15 7/3/15 20/44/15 23/45/15
f 4/6/16 15/18/16 21/40/16 22/7/16
f 3/17/15 10/4/15 23/45/15 25/41/15
f 15/18/17 3/17/17 25/41/17 21/40/17
f 8/26/18 14/25/18 34/9/18 18/34/18
f 2/33/19 13/22/19 33/15/19 30/14/19
f 1/21/20 12/46/20 32/1/20 28/16/20
f 6/47/21 9/48/21 31/13/21 18/23/21
f 13/22/22 1/21/22 28/16/22 33/15/22
f 9/48/23 2/33/23 30/14/23 31/13/23
f 14/25/24 7/29/24 29/10/24 34/9/24
f 12/46/25 5/49/25 29/2/25 32/1/25
f 35/50/26 36/51/26 38/52/26 37/53/26
f 43/54/6 44/55/6 42/56/6 41/57/6
f 41/57/27 42/56/27 40/58/27 39/59/27
f 45/60/28 46/61/28 36/62/28 35/63/28
f 43/64/29 41/57/29 39/59/29 45/65/29
f 44/66/30 38/67/30 36/68/30 46/69/30
f 42/56/30 44/66/30 46/69/30 40/58/30
f 37/70/29 43/64/29 45/65/29 35/71/29
f 39/59/31 40/58/31 46/61/31 45/60/31
f 37/53/6 38/52/6 44/55/6 43/54/6
f 47/72/30 48/73/30 50/74/30 49/75/30
f 55/76/6 56/77/6 54/78/6 53/79/6
f 53/79/29 54/78/29 52/80/29 51/81/29
f 57/82/32 58/83/32 48/84/32 47/85/32
f 55/86/26 53/79/26 51/81/26 57/87/26
f 56/88/27 50/89/27 48/90/27 58/91/27
f 54/78/27 56/88/27 58/91/27 52/80/27
f 49/92/26 55/86/26 57/87/26 47/93/26
f 51/81/33 52/80/33 58/83/33 57/82/33
f 49/75/6 50/74/6 56/77/6 55/76/6
