# Blender v3.0.0 OBJ File: 'spacemine.blend'
# www.blender.org
mtllib spacemine.mtl
o Cube
v 0.000000 -1.552625 0.000000
v 1.123491 -0.694364 0.816254
v -0.429127 -0.694365 1.320739
v -1.388708 -0.694358 0.000000
v -0.429127 -0.694365 -1.320739
v 1.123491 -0.694364 -0.816254
v 0.429127 0.694365 1.320739
v -1.123491 0.694364 0.816254
v -1.123491 0.694364 -0.816254
v 0.429127 0.694365 -1.320739
v 1.388708 0.694358 0.000000
v 0.000000 1.552625 0.000000
v -0.252233 -1.320747 0.776305
v 0.660367 -1.320747 0.479779
v 0.408137 -0.816273 1.256092
v 1.320737 -0.816271 0.000000
v 0.660367 -1.320747 -0.479779
v -0.816261 -1.320743 0.000000
v -1.068500 -0.816271 0.776308
v -0.252233 -1.320747 -0.776305
v -1.068500 -0.816271 -0.776308
v 0.408137 -0.816273 -1.256092
v 1.476636 -0.000000 0.479781
v 1.476636 -0.000000 -0.479781
v 0.000000 -0.000000 1.552625
v 0.912611 -0.000000 1.256099
v -1.476636 -0.000000 0.479781
v -0.912611 -0.000000 1.256099
v -0.912611 -0.000000 -1.256099
v -1.476636 -0.000000 -0.479781
v 0.912611 -0.000000 -1.256099
v 0.000000 -0.000000 -1.552625
v 1.068500 0.816271 0.776308
v -0.408137 0.816273 1.256092
v -1.320737 0.816271 0.000000
v -0.408137 0.816273 -1.256092
v 1.068500 0.816271 -0.776308
v 0.252233 1.320747 0.776305
v 0.816261 1.320743 0.000000
v -0.660367 1.320747 0.479779
v -0.660367 1.320747 -0.479779
v 0.252233 1.320747 -0.776305
v 0.623617 -2.684401 -1.359468
v 0.264456 -0.955156 -1.052746
v -0.270859 1.352690 0.025968
v -0.624884 2.698123 1.156385
v 0.210764 1.325658 0.322807
v -0.529625 2.692776 1.215096
v 0.213966 1.086437 0.836196
v -0.528992 2.645462 1.316637
v -0.264456 0.874248 1.052745
v -0.623617 2.603493 1.359468
v -0.746079 0.901279 0.755906
v -0.718875 2.608840 1.300757
v -0.749281 1.140500 0.242517
v -0.719509 2.656154 1.199216
v -0.213966 -1.167345 -0.836196
v 0.528992 -2.726369 -1.316637
v -0.210764 -1.406566 -0.322807
v 0.529625 -2.773684 -1.215096
v 0.270859 -1.433598 -0.025968
v 0.624884 -2.779030 -1.156386
v 0.749280 -1.221408 -0.242518
v 0.719509 -2.737062 -1.199216
v 0.746079 -0.982187 -0.755906
v 0.718875 -2.689748 -1.300757
v 2.417197 1.289013 1.271684
v 1.303636 0.511936 0.101429
v -0.719668 -0.631395 -1.071334
v -2.301697 -1.377546 -1.463518
v -1.042600 -0.181404 -0.952894
v -2.365568 -1.288544 -1.440092
v -1.334584 -0.162129 -0.467942
v -2.423319 -1.284732 -1.344175
v -1.303636 -0.592844 -0.101429
v -2.417197 -1.369921 -1.271684
v -0.980703 -1.042835 -0.219869
v -2.353326 -1.458923 -1.295110
v -0.688719 -1.062110 -0.704821
v -2.295576 -1.462735 -1.391027
v 1.334584 0.081221 0.467941
v 2.423319 1.203824 1.344175
v 1.042600 0.100496 0.952894
v 2.365568 1.207636 1.440092
v 0.719668 0.550487 1.071334
v 2.301697 1.296638 1.463518
v 0.688720 0.981202 0.704821
v 2.295576 1.381828 1.391026
v 0.980703 0.961927 0.219869
v 2.353326 1.378015 1.295110
v 2.283352 -0.250823 -1.992374
v 0.652772 -0.132901 -1.257073
v -1.365740 0.047081 0.376804
v -2.424367 0.168944 1.818269
v -1.162479 0.537644 0.573876
v -2.384165 0.265971 1.857248
v -0.805995 0.540101 1.014011
v -2.313657 0.266456 1.944300
v -0.652772 0.051993 1.257072
v -2.283352 0.169916 1.992374
v -0.856033 -0.438570 1.060000
v -2.323554 0.072889 1.953396
v -1.212517 -0.441026 0.619865
v -2.394062 0.072403 1.866344
v 0.805995 -0.621008 -1.014011
v 2.313657 -0.347364 -1.944300
v 1.162479 -0.618552 -0.573877
v 2.384165 -0.346878 -1.857248
v 1.365740 -0.127989 -0.376804
v 2.424367 -0.249852 -1.818270
v 1.212517 0.360118 -0.619866
v 2.394062 -0.153311 -1.866344
v 0.856033 0.357662 -1.060000
v 2.323554 -0.153797 -1.953397
v -1.363960 1.668527 -2.108672
v -0.476539 0.350632 -1.278613
v 0.713169 -1.178195 0.460241
v 1.410763 -1.897113 1.946809
v 0.229926 -1.221930 0.752420
v 1.315184 -1.905763 2.004598
v 0.111611 -0.848602 1.161605
v 1.291783 -1.831924 2.085529
v 0.476539 -0.431539 1.278613
v 1.363961 -1.749435 2.108671
v 0.959783 -0.387804 0.986434
v 1.459539 -1.740785 2.050883
v 1.078097 -0.761132 0.577248
v 1.482940 -1.814624 1.969952
v -0.111611 0.767694 -1.161606
v -1.291782 1.751016 -2.085530
v -0.229925 1.141022 -0.752420
v -1.315183 1.824855 -2.004598
v -0.713168 1.097288 -0.460242
v -1.410762 1.816205 -1.946810
v -1.078097 0.680225 -0.577249
v -1.482940 1.733716 -1.969952
v -0.959782 0.306897 -0.986434
v -1.459539 1.659877 -2.050883
v -1.038140 -2.426414 1.567472
v -0.046411 -1.359264 0.522947
v 0.917719 0.631957 -0.848849
v 1.210473 2.217657 -1.631930
v 0.955339 0.940112 -0.375108
v 1.217914 2.278606 -1.538231
v 0.519685 1.263312 -0.212157
v 1.131747 2.342530 -1.506002
v 0.046411 1.278357 -0.522947
v 1.038141 2.345506 -1.567472
v 0.008791 0.970202 -0.996688
v 1.030700 2.284557 -1.661171
v 0.444444 0.647002 -1.159639
v 1.116866 2.220633 -1.693400
v -0.519685 -1.344220 0.212157
v -1.131747 -2.423438 1.506002
v -0.955339 -1.021020 0.375108
v -1.217914 -2.359514 1.538231
v -0.917719 -0.712865 0.848849
v -1.210473 -2.298565 1.631930
v -0.444444 -0.727910 1.159638
v -1.116866 -2.301541 1.693400
v -0.008791 -1.051109 0.996688
v -1.030699 -2.365465 1.661171
vt 0.028863 0.314422
vt 0.033438 0.312138
vt 0.031024 0.320887
vt 0.038012 0.309853
vt 0.035851 0.303388
vt 0.040426 0.301104
vt 0.048172 0.244428
vt 0.052747 0.242143
vt 0.050333 0.250893
vt 0.043345 0.261926
vt 0.047919 0.259642
vt 0.045506 0.268391
vt 0.038518 0.279425
vt 0.043092 0.277140
vt 0.040679 0.285890
vt 0.042587 0.307569
vt 0.033185 0.327352
vt 0.035599 0.318603
vt 0.037759 0.325067
vt 0.052494 0.257357
vt 0.054908 0.248608
vt 0.057068 0.255073
vt 0.047667 0.274856
vt 0.050080 0.266107
vt 0.052241 0.272572
vt 0.042839 0.292355
vt 0.045253 0.283605
vt 0.047414 0.290070
vt 0.040173 0.316318
vt 0.035346 0.333817
vt 0.054655 0.263822
vt 0.049827 0.281321
vt 0.045000 0.298820
vt 0.042334 0.322783
vt 0.044747 0.314034
vt 0.046908 0.320499
vt 0.037507 0.340282
vt 0.039920 0.331533
vt 0.042081 0.337997
vt 0.056816 0.270287
vt 0.059229 0.261538
vt 0.061390 0.268003
vt 0.051988 0.287786
vt 0.054402 0.279037
vt 0.056563 0.285501
vt 0.047161 0.305284
vt 0.049575 0.296535
vt 0.051736 0.303000
vt 0.054149 0.294251
vt 0.056310 0.300716
vt 0.058976 0.276752
vt 0.061137 0.283217
vt 0.063804 0.259254
vt 0.065964 0.265718
vt 0.061643 0.252789
vt 0.044495 0.329248
vt 0.046656 0.335713
vt 0.049322 0.311749
vt 0.051483 0.318214
vt 0.059482 0.246324
vt 0.057321 0.239859
vt 0.038265 0.294639
vt 0.033691 0.296923
vt 0.809663 0.802148
vt 0.809663 0.828764
vt 0.800790 0.828764
vt 0.800790 0.802148
vt 0.780802 0.795227
vt 0.769738 0.801615
vt 0.758673 0.795227
vt 0.758673 0.782451
vt 0.769738 0.776063
vt 0.780802 0.782451
vt 0.809663 0.802148
vt 0.809663 0.828764
vt 0.800790 0.828764
vt 0.800790 0.802148
vt 0.783046 0.802148
vt 0.783046 0.828764
vt 0.774174 0.828764
vt 0.774174 0.802148
vt 0.783046 0.802148
vt 0.783046 0.828764
vt 0.774174 0.828764
vt 0.774174 0.802148
vt 0.791918 0.828764
vt 0.791918 0.802148
vt 0.796354 0.801615
vt 0.807419 0.795227
vt 0.807419 0.782451
vt 0.796354 0.776063
vt 0.785290 0.782451
vt 0.785290 0.795227
vt 0.791918 0.802148
vt 0.791918 0.828764
vt 0.783046 0.828764
vt 0.783046 0.802148
vt 0.765301 0.802148
vt 0.765301 0.828764
vt 0.756429 0.828764
vt 0.756429 0.802148
vt 0.800790 0.802148
vt 0.800790 0.828764
vt 0.774174 0.828764
vt 0.774174 0.802148
vt 0.780802 0.795227
vt 0.769738 0.801615
vt 0.758673 0.795227
vt 0.758673 0.782451
vt 0.769738 0.776063
vt 0.780802 0.782451
vt 0.809663 0.802148
vt 0.809663 0.828764
vt 0.765301 0.828764
vt 0.765301 0.802148
vt 0.780802 0.795227
vt 0.769738 0.801615
vt 0.758673 0.795227
vt 0.758673 0.782451
vt 0.769738 0.776063
vt 0.780802 0.782451
vt 0.756429 0.828764
vt 0.756429 0.802148
vt 0.796354 0.801615
vt 0.807419 0.795227
vt 0.807419 0.782451
vt 0.796354 0.776063
vt 0.785290 0.782451
vt 0.785290 0.795227
vt 0.791918 0.828764
vt 0.791918 0.802148
vt 0.796354 0.801615
vt 0.807419 0.795227
vt 0.807419 0.782451
vt 0.796354 0.776063
vt 0.785290 0.782451
vt 0.785290 0.795227
vt 0.791918 0.802148
vt 0.791918 0.828764
vt 0.783046 0.828764
vt 0.783046 0.802148
vt 0.765301 0.802148
vt 0.765301 0.828764
vt 0.756429 0.828764
vt 0.756429 0.802148
vt 0.800790 0.802148
vt 0.800790 0.828764
vt 0.774174 0.828764
vt 0.774174 0.802148
vt 0.780802 0.795227
vt 0.769738 0.801615
vt 0.758673 0.795227
vt 0.758673 0.782451
vt 0.769738 0.776063
vt 0.780802 0.782451
vt 0.809663 0.802148
vt 0.809663 0.828764
vt 0.765301 0.828764
vt 0.765301 0.802148
vt 0.756429 0.828764
vt 0.756429 0.802148
vt 0.796354 0.801615
vt 0.807419 0.795227
vt 0.807419 0.782451
vt 0.796354 0.776063
vt 0.785290 0.782451
vt 0.785290 0.795227
vt 0.809663 0.802148
vt 0.809663 0.828764
vt 0.800790 0.828764
vt 0.800790 0.802148
vt 0.783046 0.802148
vt 0.783046 0.828764
vt 0.774174 0.828764
vt 0.774174 0.802148
vt 0.780802 0.795227
vt 0.769738 0.801615
vt 0.758673 0.795227
vt 0.758673 0.782451
vt 0.769738 0.776063
vt 0.780802 0.782451
vt 0.791918 0.828764
vt 0.791918 0.802148
vt 0.796354 0.801615
vt 0.807419 0.795227
vt 0.807419 0.782451
vt 0.796354 0.776063
vt 0.785290 0.782451
vt 0.785290 0.795227
vt 0.791918 0.802148
vt 0.791918 0.828764
vt 0.783046 0.828764
vt 0.783046 0.802148
vt 0.765301 0.802148
vt 0.765301 0.828764
vt 0.756429 0.828764
vt 0.756429 0.802148
vt 0.800790 0.802148
vt 0.800790 0.828764
vt 0.774174 0.828764
vt 0.774174 0.802148
vt 0.780802 0.795227
vt 0.769738 0.801615
vt 0.758673 0.795227
vt 0.758673 0.782451
vt 0.769738 0.776063
vt 0.780802 0.782451
vt 0.809663 0.802148
vt 0.809663 0.828764
vt 0.765301 0.828764
vt 0.765301 0.802148
vt 0.756429 0.828764
vt 0.756429 0.802148
vt 0.796354 0.801615
vt 0.807419 0.795227
vt 0.807419 0.782451
vt 0.796354 0.776063
vt 0.785290 0.782451
vt 0.785290 0.795227
vt 0.809663 0.802148
vt 0.809663 0.828764
vt 0.800790 0.828764
vt 0.800790 0.802148
vt 0.783046 0.802148
vt 0.783046 0.828764
vt 0.774174 0.828764
vt 0.774174 0.802148
vt 0.780802 0.795227
vt 0.769738 0.801615
vt 0.758673 0.795227
vt 0.758673 0.782451
vt 0.769738 0.776063
vt 0.780802 0.782451
vt 0.791918 0.828764
vt 0.791918 0.802148
vt 0.796354 0.801615
vt 0.807419 0.795227
vt 0.807419 0.782451
vt 0.796354 0.776063
vt 0.785290 0.782451
vt 0.785290 0.795227
vt 0.791918 0.802148
vt 0.791918 0.828764
vt 0.783046 0.828764
vt 0.783046 0.802148
vt 0.765301 0.802148
vt 0.765301 0.828764
vt 0.756429 0.828764
vt 0.756429 0.802148
vt 0.800790 0.802148
vt 0.800790 0.828764
vt 0.774174 0.828764
vt 0.774174 0.802148
vt 0.780802 0.795227
vt 0.769738 0.801615
vt 0.758673 0.795227
vt 0.758673 0.782451
vt 0.769738 0.776063
vt 0.780802 0.782451
vt 0.809663 0.802148
vt 0.809663 0.828764
vt 0.765301 0.828764
vt 0.765301 0.802148
vt 0.756429 0.828764
vt 0.756429 0.802148
vt 0.796354 0.801615
vt 0.807419 0.795227
vt 0.807419 0.782451
vt 0.796354 0.776063
vt 0.785290 0.782451
vt 0.785290 0.795227
vt 0.780802 0.795227
vt 0.769738 0.801615
vt 0.758673 0.795227
vt 0.758673 0.782451
vt 0.769738 0.776063
vt 0.780802 0.782451
vt 0.809663 0.802148
vt 0.809663 0.828764
vt 0.800790 0.828764
vt 0.800790 0.802148
vt 0.783046 0.802148
vt 0.783046 0.828764
vt 0.774174 0.828764
vt 0.774174 0.802148
vt 0.791918 0.828764
vt 0.791918 0.802148
vt 0.796354 0.801615
vt 0.807419 0.795227
vt 0.807419 0.782451
vt 0.796354 0.776063
vt 0.785290 0.782451
vt 0.785290 0.795227
vt 0.791918 0.802148
vt 0.791918 0.828764
vt 0.783046 0.828764
vt 0.783046 0.802148
vt 0.765301 0.802148
vt 0.765301 0.828764
vt 0.756429 0.828764
vt 0.756429 0.802148
vt 0.800790 0.802148
vt 0.800790 0.828764
vt 0.774174 0.828764
vt 0.774174 0.802148
vt 0.780802 0.795227
vt 0.769738 0.801615
vt 0.758673 0.795227
vt 0.758673 0.782451
vt 0.769738 0.776063
vt 0.780802 0.782451
vt 0.809663 0.802148
vt 0.809663 0.828764
vt 0.765301 0.828764
vt 0.765301 0.802148
vt 0.756429 0.828764
vt 0.756429 0.802148
vt 0.796354 0.801615
vt 0.807419 0.795227
vt 0.807419 0.782451
vt 0.796354 0.776063
vt 0.785290 0.782451
vt 0.785290 0.795227
vn 0.0000 -1.0000 0.0000
vn 0.4253 -0.8506 0.3090
vn -0.1625 -0.8506 0.5000
vn 0.7236 -0.4472 0.5257
vn 0.8506 -0.5257 0.0000
vn -0.5257 -0.8506 0.0000
vn -0.1625 -0.8506 -0.5000
vn 0.4253 -0.8506 -0.3090
vn 0.9510 0.0000 0.3090
vn -0.2764 -0.4472 0.8506
vn 0.2629 -0.5257 0.8090
vn 0.0000 0.0000 1.0000
vn -0.8944 -0.4472 0.0000
vn -0.6882 -0.5257 0.5000
vn -0.9510 0.0000 0.3090
vn -0.2764 -0.4472 -0.8506
vn -0.6882 -0.5257 -0.5000
vn -0.5878 0.0000 -0.8090
vn 0.7236 -0.4472 -0.5257
vn 0.2629 -0.5257 -0.8090
vn 0.5878 0.0000 -0.8090
vn 0.5878 0.0000 0.8090
vn -0.5878 0.0000 0.8090
vn -0.9510 0.0000 -0.3090
vn 0.0000 0.0000 -1.0000
vn 0.9510 0.0000 -0.3090
vn 0.2764 0.4472 0.8506
vn 0.6882 0.5257 0.5000
vn 0.1625 0.8506 0.5000
vn -0.7236 0.4472 0.5257
vn -0.2629 0.5257 0.8090
vn -0.4253 0.8506 0.3090
vn -0.7236 0.4472 -0.5257
vn -0.8506 0.5257 0.0000
vn -0.4253 0.8506 -0.3090
vn 0.2764 0.4472 -0.8506
vn -0.2629 0.5257 -0.8090
vn 0.1625 0.8506 -0.5000
vn 0.8944 0.4472 0.0000
vn 0.6882 0.5257 -0.5000
vn 0.5257 0.8506 0.0000
vn 0.0000 1.0000 0.0000
vn 0.8410 0.1959 -0.5043
vn -0.1816 -0.3335 -0.9251
vn -0.5863 0.2304 -0.7766
vn 0.3514 0.8781 -0.3247
vn -0.4587 -0.5906 -0.6639
vn 0.1408 -0.3247 -0.9353
vn 0.7444 -0.3585 -0.5632
vn 0.7484 -0.6583 0.0801
vn 0.1488 -0.9243 0.3515
vn -0.4547 -0.8904 -0.0205
vn 0.1005 -0.0917 -0.9907
vn -0.1488 0.9243 -0.3515
vn 0.4547 0.8904 0.0205
vn 0.8307 -0.1326 -0.5407
vn -0.8410 -0.1959 0.5043
vn 0.1816 0.3335 0.9251
vn 0.1428 0.8733 0.4657
vn -0.8879 0.4571 -0.0513
vn -0.1005 0.0917 0.9907
vn 0.6248 0.4133 0.6624
vn 0.4587 0.5906 0.6639
vn 0.8355 -0.4953 0.2376
vn -0.1102 0.8170 -0.5659
vn -0.8355 0.4953 -0.2376
vn -0.8307 0.1326 0.5407
vn 0.6199 0.7760 -0.1159
vn -0.1408 0.3247 0.9353
vn 0.1102 -0.8170 0.5659
vn -0.7444 0.3585 0.5632
vn -0.6199 -0.7760 0.1159
vn -0.7484 0.6583 -0.0801
vn -0.6248 -0.4133 -0.6624
vn 0.9522 -0.2546 0.1689
vn 0.9134 0.2852 -0.2904
vn 0.5087 0.8491 -0.1420
vn 0.5863 -0.2304 0.7766
vn -0.9522 0.2546 -0.1689
vn -0.0913 0.9073 0.4104
vn 0.0443 -0.2543 -0.9661
vn 0.0913 -0.9073 -0.4104
vn -0.3514 -0.8781 0.3247
vn -0.4452 0.4279 -0.7865
vn -0.9134 -0.2852 0.2904
vn -0.0443 0.2543 0.9661
vn -0.5087 -0.8491 0.1420
vn 0.4452 -0.4279 0.7865
vn -0.1428 -0.8733 -0.4657
vn 0.8879 -0.4571 0.0513
vn -0.1430 -0.0392 -0.9889
vn -0.9929 0.0456 -0.1095
vn -0.7382 0.6604 0.1375
vn 0.1651 0.7046 -0.6901
vn 0.1430 0.0392 0.9889
vn 0.9929 -0.0456 0.1095
vn 0.8009 0.5661 -0.1951
vn -0.0892 0.7791 0.6204
vn 0.2914 -0.6635 -0.6891
vn 0.0994 -0.0518 -0.9937
vn 0.3541 0.5630 -0.7467
vn 0.7382 -0.6604 -0.1375
vn -0.2914 0.6635 0.6891
vn 0.7055 0.7083 -0.0229
vn -0.9378 0.0317 -0.3456
vn -0.7055 -0.7083 0.0229
vn -0.1651 -0.7046 0.6901
vn -0.6297 0.7754 -0.0468
vn -0.0994 0.0518 0.9937
vn 0.9378 -0.0317 0.3456
vn -0.3541 -0.5630 0.7467
vn 0.6297 -0.7754 0.0468
vn -0.8009 -0.5661 0.1951
vn 0.0892 -0.7791 -0.6204
vn -0.0548 -0.2650 -0.9627
vn 0.4702 -0.8815 -0.0423
vn -0.1354 -0.9363 0.3239
vn -0.7875 -0.3313 -0.5197
vn 0.0548 0.2650 0.9627
vn -0.4702 0.8815 0.0423
vn -0.9275 0.3589 -0.1043
vn -0.4984 -0.3673 0.7853
vn 0.2837 0.4685 -0.8367
vn -0.1736 -0.0542 -0.9833
vn -0.7793 -0.1090 -0.6171
vn 0.1354 0.9363 -0.3239
vn -0.2837 -0.4685 0.8367
vn -0.9668 0.2347 0.1006
vn 0.4136 -0.8670 -0.2780
vn 0.9668 -0.2347 -0.1006
vn 0.7875 0.3313 0.5197
vn -0.3190 -0.9333 0.1649
vn 0.1736 0.0542 0.9833
vn -0.4136 0.8670 0.2780
vn 0.7793 0.1090 0.6171
vn 0.3190 0.9333 -0.1649
vn 0.9275 -0.3589 0.1043
vn 0.4984 0.3673 -0.7853
vn -0.3080 -0.9250 -0.2225
vn 0.2851 -0.9438 0.1670
vn 0.3322 -0.5576 0.7607
vn -0.2137 -0.1526 0.9649
vn -0.8068 -0.1337 0.5754
vn -0.8540 -0.5199 -0.0183
vn 0.4707 -0.8820 0.0230
vn 0.8068 0.1337 -0.5754
vn 0.8540 0.5199 0.0183
vn 0.5277 -0.4148 0.7412
vn -0.4707 0.8820 -0.0230
vn 0.2468 0.8592 0.4481
vn 0.3080 0.9250 0.2225
vn -0.1328 0.0751 0.9883
vn 0.8503 -0.0980 -0.5171
vn 0.1328 -0.0751 -0.9883
vn -0.5277 0.4148 -0.7412
vn 0.9073 0.3692 0.2011
vn -0.2851 0.9438 -0.1670
vn -0.8503 0.0980 0.5171
vn -0.3322 0.5576 -0.7607
vn -0.9073 -0.3692 -0.2011
vn 0.2137 0.1526 -0.9649
vn -0.2468 -0.8592 -0.4481
usemtl WhiteMat
s 1
f 1/1/1 14/2/2 13/3/3
f 2/4/4 14/5/2 16/6/5
f 1/7/1 13/8/3 18/9/6
f 1/10/1 18/11/6 20/12/7
f 1/13/1 20/14/7 17/15/8
f 2/4/4 16/6/5 23/16/9
f 3/17/10 15/18/11 25/19/12
f 4/20/13 19/21/14 27/22/15
f 5/23/16 21/24/17 29/25/18
f 6/26/19 22/27/20 31/28/21
f 2/4/4 23/16/9 26/29/22
f 3/17/10 25/19/12 28/30/23
f 4/20/13 27/22/15 30/31/24
f 5/23/16 29/25/18 32/32/25
f 6/26/19 31/28/21 24/33/26
f 7/34/27 33/35/28 38/36/29
f 8/37/30 34/38/31 40/39/32
f 9/40/33 35/41/34 41/42/35
f 10/43/36 36/44/37 42/45/38
f 11/46/39 37/47/40 39/48/41
f 39/48/41 42/49/38 12/50/42
f 39/48/41 37/47/40 42/49/38
f 37/47/40 10/43/36 42/49/38
f 42/45/38 41/51/35 12/52/42
f 42/45/38 36/44/37 41/51/35
f 36/44/37 9/40/33 41/51/35
f 41/42/35 40/53/32 12/54/42
f 41/42/35 35/41/34 40/53/32
f 35/41/34 8/55/30 40/53/32
f 40/39/32 38/56/29 12/57/42
f 40/39/32 34/38/31 38/56/29
f 34/38/31 7/34/27 38/56/29
f 38/36/29 39/58/41 12/59/42
f 38/36/29 33/35/28 39/58/41
f 33/35/28 11/46/39 39/58/41
f 24/33/26 37/47/40 11/46/39
f 24/33/26 31/28/21 37/47/40
f 31/28/21 10/43/36 37/47/40
f 32/32/25 36/44/37 10/43/36
f 32/32/25 29/25/18 36/44/37
f 29/25/18 9/40/33 36/44/37
f 30/31/24 35/41/34 9/40/33
f 30/31/24 27/22/15 35/41/34
f 27/22/15 8/55/30 35/41/34
f 28/30/23 34/38/31 8/37/30
f 28/30/23 25/19/12 34/38/31
f 25/19/12 7/34/27 34/38/31
f 26/29/22 33/35/28 7/34/27
f 26/29/22 23/16/9 33/35/28
f 23/16/9 11/46/39 33/35/28
f 31/28/21 32/32/25 10/43/36
f 31/28/21 22/27/20 32/32/25
f 22/27/20 5/23/16 32/32/25
f 29/25/18 30/31/24 9/40/33
f 29/25/18 21/24/17 30/31/24
f 21/24/17 4/20/13 30/31/24
f 27/22/15 28/60/23 8/55/30
f 27/22/15 19/21/14 28/60/23
f 19/21/14 3/61/10 28/60/23
f 25/19/12 26/29/22 7/34/27
f 25/19/12 15/18/11 26/29/22
f 15/18/11 2/4/4 26/29/22
f 23/16/9 24/33/26 11/46/39
f 23/16/9 16/6/5 24/33/26
f 16/6/5 6/26/19 24/33/26
f 17/15/8 22/27/20 6/26/19
f 17/15/8 20/14/7 22/27/20
f 20/14/7 5/23/16 22/27/20
f 20/12/7 21/24/17 5/23/16
f 20/12/7 18/11/6 21/24/17
f 18/11/6 4/20/13 21/24/17
f 18/9/6 19/21/14 4/20/13
f 18/9/6 13/8/3 19/21/14
f 13/8/3 3/61/10 19/21/14
f 16/6/5 17/62/8 6/26/19
f 16/6/5 14/5/2 17/62/8
f 14/5/2 1/63/1 17/62/8
f 13/3/3 15/18/11 3/17/10
f 13/3/3 14/2/2 15/18/11
f 14/2/2 2/4/4 15/18/11
f 69/64/43 70/65/44 72/66/45 71/67/46
f 58/68/47 43/69/48 66/70/49 64/71/50 62/72/51 60/73/52
f 45/74/53 46/75/54 48/76/55 47/77/56
f 85/78/57 86/79/58 88/80/59 87/81/60
f 61/82/61 62/83/51 64/84/50 63/85/62
f 47/77/56 48/76/55 50/86/63 49/87/64
f 44/88/65 57/89/66 59/90/67 61/91/61 63/92/62 65/93/68
f 59/94/67 60/95/52 62/83/51 61/82/61
f 49/87/64 50/86/63 52/96/69 51/97/70
f 65/98/68 66/99/49 43/100/48 44/101/65
f 57/102/66 58/103/47 60/95/52 59/94/67
f 51/97/70 52/96/69 54/104/71 53/105/72
f 48/106/55 46/107/54 56/108/73 54/109/71 52/110/69 50/111/63
f 44/112/65 43/113/48 58/103/47 57/102/66
f 53/105/72 54/104/71 56/114/73 55/115/74
f 82/116/75 67/117/76 90/118/77 88/119/59 86/120/58 84/121/78
f 63/85/62 64/84/50 66/99/49 65/98/68
f 55/115/74 56/114/73 46/122/54 45/123/53
f 45/124/53 47/125/56 49/126/64 51/127/70 53/128/72 55/129/74
f 71/67/46 72/66/45 74/130/79 73/131/80
f 68/132/81 81/133/82 83/134/83 85/135/57 87/136/60 89/137/84
f 83/138/83 84/139/78 86/79/58 85/78/57
f 73/131/80 74/130/79 76/140/85 75/141/86
f 89/142/84 90/143/77 67/144/76 68/145/81
f 81/146/82 82/147/75 84/139/78 83/138/83
f 75/141/86 76/140/85 78/148/87 77/149/88
f 72/150/45 70/151/44 80/152/89 78/153/87 76/154/85 74/155/79
f 68/156/81 67/157/76 82/147/75 81/146/82
f 77/149/88 78/148/87 80/158/89 79/159/90
f 87/81/60 88/80/59 90/143/77 89/142/84
f 79/159/90 80/158/89 70/160/44 69/161/43
f 69/162/43 71/163/46 73/164/80 75/165/86 77/166/88 79/167/90
f 93/168/91 94/169/92 96/170/93 95/171/94
f 109/172/95 110/173/96 112/174/97 111/175/98
f 106/176/99 91/177/100 114/178/101 112/179/97 110/180/96 108/181/102
f 95/171/94 96/170/93 98/182/103 97/183/104
f 92/184/105 105/185/106 107/186/107 109/187/95 111/188/98 113/189/108
f 107/190/107 108/191/102 110/173/96 109/172/95
f 97/183/104 98/182/103 100/192/109 99/193/110
f 113/194/108 114/195/101 91/196/100 92/197/105
f 105/198/106 106/199/99 108/191/102 107/190/107
f 99/193/110 100/192/109 102/200/111 101/201/112
f 96/202/93 94/203/92 104/204/113 102/205/111 100/206/109 98/207/103
f 92/208/105 91/209/100 106/199/99 105/198/106
f 101/201/112 102/200/111 104/210/113 103/211/114
f 111/175/98 112/174/97 114/195/101 113/194/108
f 103/211/114 104/210/113 94/212/92 93/213/91
f 93/214/91 95/215/94 97/216/104 99/217/110 101/218/112 103/219/114
f 117/220/115 118/221/116 120/222/117 119/223/118
f 133/224/119 134/225/120 136/226/121 135/227/122
f 130/228/123 115/229/124 138/230/125 136/231/121 134/232/120 132/233/126
f 119/223/118 120/222/117 122/234/127 121/235/128
f 116/236/129 129/237/130 131/238/131 133/239/119 135/240/122 137/241/132
f 131/242/131 132/243/126 134/225/120 133/224/119
f 121/235/128 122/234/127 124/244/133 123/245/134
f 137/246/132 138/247/125 115/248/124 116/249/129
f 129/250/130 130/251/123 132/243/126 131/242/131
f 123/245/134 124/244/133 126/252/135 125/253/136
f 120/254/117 118/255/116 128/256/137 126/257/135 124/258/133 122/259/127
f 116/260/129 115/261/124 130/251/123 129/250/130
f 125/253/136 126/252/135 128/262/137 127/263/138
f 135/227/122 136/226/121 138/247/125 137/246/132
f 127/263/138 128/262/137 118/264/116 117/265/115
f 117/266/115 119/267/118 121/268/128 123/269/134 125/270/136 127/271/138
f 154/272/139 139/273/140 162/274/141 160/275/142 158/276/143 156/277/144
f 141/278/145 142/279/146 144/280/147 143/281/148
f 157/282/149 158/283/143 160/284/142 159/285/150
f 143/281/148 144/280/147 146/286/151 145/287/152
f 140/288/153 153/289/154 155/290/155 157/291/149 159/292/150 161/293/156
f 155/294/155 156/295/144 158/283/143 157/282/149
f 145/287/152 146/286/151 148/296/157 147/297/158
f 161/298/156 162/299/141 139/300/140 140/301/153
f 153/302/154 154/303/139 156/295/144 155/294/155
f 147/297/158 148/296/157 150/304/159 149/305/160
f 144/306/147 142/307/146 152/308/161 150/309/159 148/310/157 146/311/151
f 140/312/153 139/313/140 154/303/139 153/302/154
f 149/305/160 150/304/159 152/314/161 151/315/162
f 159/285/150 160/284/142 162/299/141 161/298/156
f 151/315/162 152/314/161 142/316/146 141/317/145
f 141/318/145 143/319/148 145/320/152 147/321/158 149/322/160 151/323/162
