# Blender v3.0.0 OBJ File: 'triangle_pointer.blend'
# www.blender.org
mtllib triangle_pointer.mtl
o Pointer_Cube
v 0.559268 0.041709 -0.821696
v 0.559268 -0.041709 -0.821696
v -0.559268 0.041709 -0.821696
v -0.559268 -0.041709 -0.821696
v -0.000000 -0.163138 -0.467870
v -0.000000 0.031509 0.517779
v -0.000000 -0.031509 0.517779
v -0.000000 0.163138 -0.467870
vt 0.750000 0.500000
vt 0.875000 0.630876
vt 0.750000 0.750000
vt 0.375000 0.875000
vt 0.625000 0.875000
vt 0.625000 1.057152
vt 0.375000 1.057152
vt 0.250000 0.500000
vt 0.375000 0.630876
vt 0.250000 0.750000
vt 0.375000 0.375000
vt 0.625000 0.375000
vt 0.625000 0.500000
vt 0.375000 0.500000
vt 0.375000 0.250000
vt 0.625000 0.250000
vt 0.125000 0.500000
vt 0.625000 0.630876
vn -0.2864 0.9497 0.1268
vn -0.9228 0.0000 0.3853
vn 0.2864 -0.9497 0.1268
vn -0.5346 0.0000 -0.8451
vn 0.5346 0.0000 -0.8451
vn -0.2864 -0.9497 0.1268
vn 0.9228 0.0000 0.3853
vn 0.2864 0.9497 0.1268
usemtl Material
s off
f 8/1/1 3/2/1 6/3/1
f 7/4/2 6/5/2 3/6/2 4/7/2
f 5/8/3 2/9/3 7/10/3
f 5/11/4 8/12/4 1/13/4 2/14/4
f 4/15/5 3/16/5 8/12/5 5/11/5
f 4/17/6 5/8/6 7/10/6
f 2/9/7 1/18/7 6/5/7 7/4/7
f 1/13/8 8/1/8 6/3/8
