# Blender v3.0.0 OBJ File: ''
# www.blender.org
mtllib low_poly_asteroid2.mtl
o Cube
v 1.105384 1.058191 -1.355867
v 1.197036 -1.760092 -1.488857
v 0.069747 1.193669 0.412312
v 0.525898 -0.749616 0.055773
v -0.227779 0.594485 -1.023445
v -1.011353 -0.828645 -1.179367
v -0.662833 0.886268 0.188211
v -1.058227 -0.291315 -0.204014
v 2.629960 1.482248 -0.845301
v 2.630038 -1.845979 -0.844077
v 1.121069 1.221635 2.114157
v 1.555850 -0.211969 1.193474
vt 0.625000 0.500000
vt 0.875000 0.500000
vt 0.875000 0.750000
vt 0.625000 0.750000
vt 0.375000 0.750000
vt 0.625000 1.000000
vt 0.375000 1.000000
vt 0.375000 0.000000
vt 0.625000 0.000000
vt 0.625000 0.250000
vt 0.375000 0.250000
vt 0.125000 0.500000
vt 0.375000 0.500000
vt 0.125000 0.750000
vt 0.375000 0.750000
vt 0.625000 0.750000
vt 0.375000 0.500000
vt 0.625000 0.500000
vn -0.3474 0.8888 -0.2989
vn -0.2133 -0.2319 0.9491
vn -0.8229 0.4470 -0.3508
vn -0.3050 -0.8478 0.4338
vn -0.6960 -0.4073 0.5913
vn -0.1655 0.0939 -0.9817
vn 0.8874 -0.0080 0.4609
vn 0.3612 0.0254 -0.9321
vn -0.2160 -0.8329 0.5096
vn -0.1342 0.9899 -0.0460
usemtl Material
s off
f 1/1/1 5/2/1 7/3/1 3/4/1
f 4/5/2 3/4/2 7/6/2 8/7/2
f 8/8/3 7/9/3 5/10/3 6/11/3
f 6/12/4 2/13/4 4/5/4 8/14/4
f 3/4/5 4/5/5 12/15/5 11/16/5
f 6/11/6 5/10/6 1/1/6 2/13/6
f 10/17/7 9/18/7 11/16/7 12/15/7
f 2/13/8 1/1/8 9/18/8 10/17/8
f 4/5/9 2/13/9 10/17/9 12/15/9
f 1/1/10 3/4/10 11/16/10 9/18/10
